<svg width="130" height="130" viewBox="0 0 130 130" fill="none" xmlns="http://www.w3.org/2000/svg">
<g clip-path="url(#clip0_5_463)">
<path d="M127.266 64.9741C127.266 99.3631 99.3885 127.241 64.9995 127.241C30.6105 127.241 2.73265 99.3631 2.73265 64.9741C2.73265 30.5851 30.6105 2.70725 64.9995 2.70725C99.3885 2.70725 127.266 30.5851 127.266 64.9741Z" stroke="white" stroke-width="5.41451"/>
</g>
<g clip-path="url(#clip1_5_463)">
<path fill-rule="evenodd" clip-rule="evenodd" d="M56.018 28.6127C51.1481 31.1495 47.1639 33.2962 47.1647 33.3835C47.1669 33.6088 58.8526 39.5269 59.2674 39.5125C59.4561 39.5062 60.8247 38.8762 62.3087 38.1126L65.0074 36.7246L67.9546 38.2395L70.9017 39.7547L75.7281 37.586C83.0006 34.3181 83.7559 33.96 83.6375 33.8397C83.4804 33.68 80.8719 32.2787 73.7949 28.5529C70.3747 26.7522 67.0551 24.9867 66.4178 24.6294C65.7806 24.2721 65.1723 23.9848 65.066 23.9903C64.9597 23.9959 60.888 26.076 56.018 28.6127ZM34.6587 39.6733L29.5892 42.2918V53.7843C29.5892 60.1051 29.6558 65.2766 29.7374 65.2766C29.8188 65.2766 32.313 64.1954 35.28 62.8739L40.6745 60.4713V48.3575L43.3106 49.7937C45.342 50.8994 47.3745 52.0029 49.4083 53.1041L52.8698 54.9782L54.4101 54.2817C55.3761 53.8442 56.3402 53.4024 57.3023 52.9564C58.0458 52.6102 59.8708 51.7882 61.3578 51.1294C62.8449 50.4703 64.2214 49.8076 64.4166 49.6565C64.6758 49.4559 61.5142 47.7087 52.7225 43.194C46.0954 39.7908 40.4607 37.0173 40.2008 37.0306C39.9409 37.0439 37.447 38.2329 34.6587 39.6733ZM84.5511 40.4086C81.0985 41.9673 78.2712 43.3049 78.268 43.3812C78.2649 43.4573 80.1467 44.5763 82.45 45.8672C84.7531 47.1585 86.6375 48.284 86.6375 48.3688C86.6375 48.4534 84.5995 49.4409 82.1089 50.5637C79.6179 51.6862 73.3218 54.5295 68.1172 56.8823L50.6782 64.765C46.2914 66.748 42.3373 68.5354 41.8912 68.7375C32.931 72.7937 30.4682 73.9192 30.13 74.1124C29.7899 74.3069 29.7128 75.437 29.6523 81.1087L29.5801 87.8733L34.1135 90.1832L38.6467 92.493L44.9328 89.656C48.3903 88.0958 51.2189 86.7375 51.2189 86.6375C51.2189 86.5377 50.58 86.1214 49.7995 85.712C49.0186 85.3026 47.4067 84.3963 46.217 83.6977C45.0275 82.9989 43.8414 82.3578 43.5809 82.2728C43.3206 82.188 43.1114 82.0397 43.1156 81.9429C43.12 81.8465 45.8881 80.5316 49.2666 79.0209C55.8288 76.0869 60.8507 73.8256 71.632 68.95C76.453 66.7703 81.2746 64.592 86.0968 62.4149C90.3349 60.502 95.2624 58.2678 97.0469 57.4502L100.291 55.9635L100.363 49.1219L100.436 42.2805L95.838 39.9205C93.309 38.6226 91.1474 37.5639 91.034 37.5677C90.9208 37.5713 88.0035 38.8496 84.5511 40.4086ZM99.0595 65.0906C98.3819 65.4216 97.0436 66.0412 96.0854 66.4675C95.1273 66.8938 93.309 67.7142 92.045 68.291L89.7468 69.3392L89.6944 75.3455C89.6654 78.6489 89.5438 81.3371 89.424 81.3196C89.152 81.2792 84.8448 79.0702 80.515 76.7501C77.39 75.0758 77.1937 75.0093 76.4594 75.3729C76.0349 75.5833 73.4975 76.7213 70.8209 77.9022C68.1441 79.083 65.8669 80.1262 65.7598 80.2207C65.653 80.315 71.0401 83.2348 77.7316 86.7095L89.8975 93.0271L95.0945 90.3387C97.9526 88.8602 100.383 87.5116 100.495 87.342C100.747 86.9606 100.725 64.4366 100.473 64.467C100.373 64.479 99.737 64.7597 99.0595 65.0906ZM70.2801 91.5282C69.3787 91.9157 68.4774 92.3039 67.5764 92.6926C64.8557 93.8697 65.3889 93.9087 62.1519 92.2973C59.996 91.2241 59.0667 90.893 58.6634 91.0537C58.3608 91.1742 55.7568 92.3458 52.8763 93.657C49.996 94.9683 47.5394 96.0411 47.4172 96.0411C46.2087 96.0411 48.2178 97.2415 55.9705 101.152L65.0625 105.738L68.888 103.849C70.992 102.811 75.2357 100.731 78.3188 99.2271C81.4015 97.7232 83.8857 96.4538 83.8393 96.4059C83.7924 96.3582 81.2093 95.0318 78.0987 93.4583L72.4431 90.5978L70.2801 91.5282Z" fill="white"/>
</g>
<defs>
<clipPath id="clip0_5_463">
<rect width="129.948" height="129.948" fill="white" transform="translate(0.0253906)"/>
</clipPath>
<clipPath id="clip1_5_463">
<rect width="71.1668" height="81.8385" fill="white" transform="translate(29.5801 23.9395)"/>
</clipPath>
</defs>
</svg>
