<svg width="130" height="130" viewBox="0 0 130 130" fill="none" xmlns="http://www.w3.org/2000/svg">
<g clip-path="url(#clip0_5_468)">
<path d="M127.28 64.9741C127.28 99.3631 99.4022 127.241 65.0132 127.241C30.6241 127.241 2.74632 99.3631 2.74632 64.9741C2.74632 30.5851 30.6241 2.70725 65.0132 2.70725C99.4022 2.70725 127.28 30.5851 127.28 64.9741Z" stroke="white" stroke-width="5.41451"/>
</g>
<g clip-path="url(#clip1_5_468)">
<path fill-rule="evenodd" clip-rule="evenodd" d="M71.9585 53.1753C74.4691 51.9234 77.6637 50.0806 80.862 47.5558C81.5364 48.9562 81.6103 50.1783 81.2628 51.1651C81.0166 51.8605 80.5526 52.4654 79.9426 52.9466C79.2819 53.4667 78.4568 53.8453 77.5447 54.0499C75.814 54.4398 73.7934 54.2122 71.9585 53.1753ZM72.3938 66.0022L75.7172 67.9218C68.9314 71.7251 67.0867 78.7871 64.8954 85.6656C62.7043 78.7871 60.8593 71.7251 54.0739 67.9218L57.3972 66.0022C57.7187 65.8807 57.9935 65.6605 58.1822 65.3733C58.3709 65.086 58.4639 64.7464 58.4478 64.4031C58.1433 57.9612 59.8827 55.1125 62.2288 53.3239C63.0704 52.6832 63.989 52.3614 64.8954 52.3614C65.8017 52.3614 66.7204 52.6832 67.5622 53.3239C69.9084 55.1125 71.6478 57.9612 71.3433 64.4031C71.3271 64.7464 71.4201 65.086 71.6088 65.3733C71.7975 65.6605 72.0723 65.8807 72.3938 66.0022ZM64.8954 23.9395C68.7369 24.0426 72.588 24.7884 75.9303 26.2391C78.2448 27.2451 80.4044 28.5738 82.3599 30.1627C83.243 30.8801 83.9701 31.573 84.7712 32.3708C86.9316 32.4454 90.0889 30.0454 91.5547 27.7996C89.0321 36.0698 77.5206 45.8361 69.5511 49.5732C69.5478 49.5718 69.5456 49.5699 69.5431 49.5682C68.1129 48.4761 66.5043 47.9301 64.8954 47.9301C63.2865 47.9301 61.6781 48.4761 60.2479 49.5682C60.2454 49.5696 60.2432 49.5721 60.24 49.5732C52.2702 45.8361 40.759 36.0698 38.2363 27.7996C39.7019 30.0454 42.8592 32.4454 45.0196 32.3708C45.8209 31.5733 46.5481 30.8801 47.4309 30.1627C49.3864 28.5738 51.546 27.2451 53.8605 26.2391C57.203 24.7884 61.0541 24.0426 64.8954 23.9395ZM57.8322 53.1753C55.3219 51.9234 52.1271 50.0806 48.929 47.5558C48.2546 48.9562 48.1808 50.1783 48.5279 51.1651C48.7744 51.8605 49.2384 52.4654 49.8482 52.9466C50.5092 53.4667 51.3343 53.8453 52.2464 54.0499C53.977 54.4398 55.9974 54.2122 57.8322 53.1753Z" fill="white"/>
<path fill-rule="evenodd" clip-rule="evenodd" d="M84.3638 44.4595C86.1245 42.6827 87.676 40.7159 88.9235 38.9609L89.5571 40.1535C91.5968 44.2344 92.6567 48.2989 92.6567 52.873L92.6523 60.1315L92.6906 63.8943C92.8383 73.1318 94.8371 82.478 99.3647 91.031L89.8916 83.3922L83.1888 94.2693L76.147 87.6403L64.8943 105.901L53.6416 87.6406L46.6 94.2696L39.8972 83.3925L30.4238 91.0313C34.9515 82.4782 36.9502 73.1321 37.0982 63.8946L37.1365 60.1318L37.1322 52.8733C37.1322 48.2989 38.1917 44.2344 40.232 40.1537L40.8654 38.9612C42.1129 40.7162 43.664 42.6827 45.425 44.4598L44.8752 45.602C43.8068 47.8204 43.4531 50.3009 44.2853 52.6599C44.8218 54.1794 45.8009 55.4824 47.0632 56.4771C48.2888 57.4431 49.7393 58.0942 51.2579 58.4362C52.2472 58.6589 53.255 58.7505 54.2563 58.7193C54.0227 60.0437 53.9206 61.4173 53.9141 62.8169L44.978 67.9782L51.8737 71.8436C52.4249 72.1526 52.9496 72.5066 53.4424 72.902C59.1276 78.0064 62.5456 93.1069 64.8945 100.483C67.2437 93.1069 70.6615 78.0064 76.3469 72.902C76.8397 72.5065 77.3644 72.1525 77.9156 71.8436L84.8113 67.9782L75.875 62.8169C75.8685 61.4173 75.7664 60.0437 75.5328 58.7193C76.5341 58.7505 77.5419 58.6589 78.5312 58.4362C80.0498 58.0942 81.5005 57.4431 82.7259 56.4771C83.9879 55.4824 84.9673 54.1794 85.5035 52.6599C86.336 50.3009 85.982 47.8207 84.9139 45.602L84.3641 44.4598L84.3638 44.4595Z" fill="white"/>
</g>
<defs>
<clipPath id="clip0_5_468">
<rect width="129.948" height="129.948" fill="white" transform="translate(0.0390625)"/>
</clipPath>
<clipPath id="clip1_5_468">
<rect width="68.9409" height="82.0725" fill="white" transform="translate(30.4238 23.9395)"/>
</clipPath>
</defs>
</svg>
