<svg width="130" height="130" viewBox="0 0 130 130" fill="none" xmlns="http://www.w3.org/2000/svg">
<g clip-path="url(#clip0_5_474)">
<path d="M127.294 64.9741C127.294 99.3631 99.4159 127.241 65.0268 127.241C30.6378 127.241 2.75999 99.3631 2.75999 64.9741C2.75999 30.5851 30.6378 2.70725 65.0268 2.70725C99.4159 2.70725 127.294 30.5851 127.294 64.9741Z" stroke="white" stroke-width="5.41451"/>
<path d="M64.8787 21.1426L90.2422 65.6722L64.8787 81.6038L39.5757 65.5211L64.8787 21.1426Z" stroke="white" stroke-width="3.02306" stroke-miterlimit="10" stroke-linecap="round" stroke-linejoin="round"/>
<path d="M64.877 108.812V89.4648" stroke="white" stroke-width="3.02306" stroke-miterlimit="10" stroke-linecap="round" stroke-linejoin="round"/>
<path d="M64.8787 108.809L90.2422 73.5301L64.8787 89.4616L39.5757 73.3789L64.8787 108.809Z" stroke="white" stroke-width="3.02306" stroke-miterlimit="10" stroke-linecap="round" stroke-linejoin="round"/>
<path d="M64.8787 53.791L90.2422 65.6716L64.8787 81.6032L39.5757 65.5205L64.8787 53.791Z" stroke="white" stroke-width="3.02306" stroke-miterlimit="10" stroke-linecap="round" stroke-linejoin="round"/>
<path d="M64.877 21.1426V81.6038" stroke="white" stroke-width="3.02306" stroke-miterlimit="10" stroke-linecap="round" stroke-linejoin="round"/>
<path d="M64.8787 21.1426L90.2422 65.6722L64.8787 81.6038L39.5757 65.5211L64.8787 21.1426Z" stroke="white" stroke-width="3.02306" stroke-miterlimit="10" stroke-linecap="round" stroke-linejoin="round"/>
</g>
<defs>
<clipPath id="clip0_5_474">
<rect width="129.948" height="129.948" fill="white" transform="translate(0.0527344)"/>
</clipPath>
</defs>
</svg>
