<svg width="130" height="130" viewBox="0 0 130 130" fill="none" xmlns="http://www.w3.org/2000/svg">
<g clip-path="url(#clip0_5_454)">
<path d="M127.255 64.9702C127.255 99.3592 99.3768 127.237 64.9878 127.237C30.5987 127.237 2.72093 99.3592 2.72093 64.9702C2.72093 30.5812 30.5987 2.70335 64.9878 2.70335C99.3768 2.70335 127.255 30.5812 127.255 64.9702Z" stroke="white" stroke-width="5.41451"/>
<path d="M44.1359 70.4806L28.279 65.3141C28.279 65.3141 26.3839 64.5452 26.9941 62.8017C27.1197 62.4422 27.3731 62.1363 28.1312 61.6105C31.6446 59.1615 93.1627 37.0503 93.1627 37.0503C93.1627 37.0503 94.8996 36.465 95.924 36.8543C96.1775 36.9328 96.4055 37.0771 96.5848 37.2726C96.7642 37.4681 96.8884 37.7078 96.9447 37.967C97.0554 38.4249 97.1017 38.896 97.0822 39.3666C97.0773 39.7738 97.0281 40.1512 96.9907 40.743C96.616 46.7883 85.4037 91.9063 85.4037 91.9063C85.4037 91.9063 84.7328 94.5464 82.3293 94.6369C81.7386 94.6559 81.1502 94.5559 80.599 94.3427C80.0479 94.1295 79.5453 93.8075 79.1212 93.3959C74.4046 89.3388 58.1026 78.383 54.5004 75.9736C54.4191 75.9182 54.3507 75.8461 54.2997 75.762C54.2487 75.678 54.2163 75.5839 54.2047 75.4863C54.1544 75.2323 54.4305 74.9178 54.4305 74.9178C54.4305 74.9178 82.8166 49.6862 83.5719 47.0374C83.6304 46.8322 83.4095 46.7309 83.1128 46.8208C81.2274 47.5144 48.5444 68.154 44.9373 70.4318C44.6776 70.5104 44.4032 70.5271 44.1359 70.4806Z" fill="white"/>
</g>
<defs>
<clipPath id="clip0_5_454">
<rect width="129.948" height="129.948" fill="white" transform="translate(0.0136719)"/>
</clipPath>
</defs>
</svg>
