<svg width="130" height="130" viewBox="0 0 130 130" fill="none" xmlns="http://www.w3.org/2000/svg">
<g clip-path="url(#clip0_5_450)">
<path d="M127.239 64.9702C127.239 99.3592 99.3612 127.237 64.9721 127.237C30.5831 127.237 2.7053 99.3592 2.7053 64.9702C2.7053 30.5812 30.5831 2.70335 64.9721 2.70335C99.3612 2.70335 127.239 30.5812 127.239 64.9702Z" stroke="white" stroke-width="5.41451"/>
<path d="M84.107 32.6367H95.0303L71.0466 59.9449L99.0672 96.9891H77.0781L59.8621 74.4776L40.1527 96.9891H29.2295L54.6379 67.7812L27.8047 32.6367H50.3399L65.8937 53.201L84.107 32.6367ZM80.2839 90.5776H86.3392L47.1579 38.8107H40.6514L80.2839 90.5776Z" fill="white"/>
</g>
<defs>
<clipPath id="clip0_5_450">
<rect width="129.948" height="129.948" fill="white"/>
</clipPath>
</defs>
</svg>
